<?xml version="1.0" standalone="no"?>
<!DOCTYPE svg PUBLIC "-//W3C//DTD SVG 20010904//EN"
 "http://www.w3.org/TR/2001/REC-SVG-20010904/DTD/svg10.dtd">
<svg version="1.0" xmlns="http://www.w3.org/2000/svg"
 width="24.000000pt" height="24.000000pt" viewBox="0 0 24.000000 24.000000"
 preserveAspectRatio="xMidYMid meet">

<g transform="translate(0.000000,24.000000) scale(0.100000,-0.100000)"
fill="#000000" stroke="none">
<path d="M27 166 c-26 -21 -28 -26 -25 -92 l3 -69 115 0 115 0 3 73 c3 69 2
73 -23 82 -14 5 -25 14 -25 20 0 17 -80 12 -86 -5 -8 -19 -24 -19 -38 -1 -9
13 -15 12 -39 -8z m158 4 c4 -6 -10 -10 -34 -10 -23 0 -41 5 -41 10 0 6 15 10
34 10 19 0 38 -4 41 -10z m45 -90 l0 -70 -110 0 -110 0 0 70 0 70 110 0 110 0
0 -70z"/>
<path d="M150 130 c21 -7 22 -8 5 -9 -44 -2 -61 -52 -26 -71 11 -5 27 -7 37
-3 13 5 15 3 9 -8 -5 -8 1 -5 13 5 12 11 22 27 22 38 0 25 -36 58 -62 57 -22
-1 -22 -1 2 -9z m46 -36 c4 -15 2 -30 -6 -37 -10 -9 -11 -8 -6 8 3 11 1 27 -4
35 -7 11 -10 11 -10 2 0 -7 -5 -10 -12 -6 -7 4 -8 3 -4 -5 4 -6 12 -9 17 -6
15 10 10 -12 -7 -25 -12 -11 -18 -10 -31 3 -20 20 -11 44 19 50 13 2 26 5 30
6 4 0 11 -11 14 -25z"/>
<path d="M91 83 c-1 -27 32 -63 57 -62 14 0 14 2 -3 9 -25 10 -41 28 -48 55
-4 18 -5 18 -6 -2z"/>
</g>
</svg>
